<?xml version="1.0" encoding="utf-8"?>
<!-- Generator: Adobe Illustrator 16.0.0, SVG Export Plug-In . SVG Version: 6.00 Build 0)  -->
<!DOCTYPE svg PUBLIC "-//W3C//DTD SVG 1.1//EN" "http://www.w3.org/Graphics/SVG/1.1/DTD/svg11.dtd">
<svg version="1.1" id="Layer_1" xmlns="http://www.w3.org/2000/svg" xmlns:xlink="http://www.w3.org/1999/xlink" x="0px" y="0px"
	 width="3214.846px" height="690.914px" viewBox="0 0 3214.846 690.914" enable-background="new 0 0 3214.846 690.914"
	 xml:space="preserve">
<g>
	<path fill-rule="evenodd" clip-rule="evenodd" fill="#FFFFFF" d="M331.841,685.879C147.499,682.806-1.058,532.17,0,346.63
		C1.063,160.161,153.151,9.736,338.997,11.001c186.846,1.273,337.03,153.066,335.896,339.287
		C673.754,537.365,520.568,688.795,331.841,685.879z M135.303,155.225c0,29.741,0,59.119,0,88.501c29.622,0,58.882,0,88.691,0
		c0-8.29,0-16.351,0-24.432c55.278,0,110.004,0,164.64,0c6.206,37.275,12.357,74.224,18.531,111.313c-38.205,0-75.59,0-113.418,0
		c0-14.883,0-29.419,0-44.755c-9.771,7.385-18.869,14.264-27.969,21.139c-18.266,13.799-36.499,27.641-54.834,41.347
		c-2.772,2.073-2.352,2.838,0.248,4.777c23.589,17.604,47.03,35.404,70.548,53.104c3.697,2.783,7.559,5.346,12.258,8.654
		c0-15.699,0-30.101,0-44.655c38.529,0,76.589,0,114.688,0c-1.622,9.748-3.214,19.231-4.775,28.719
		c-2.122,12.889-4.193,25.786-6.335,38.672c-2.192,13.2-4.568,26.372-6.581,39.6c-0.513,3.367-1.443,4.812-5.151,4.805
		c-54.318-0.108-108.636-0.086-162.954-0.038c-2.501,0.002-4.104-0.448-5.57-2.912c-2.158-3.626-4.72-7.296-7.928-9.962
		c-10.833-8.999-22.876-13.403-37.562-11.38c-20.023,2.761-37.363,20.956-37.804,41.934c-0.396,18.839,7.771,33.24,24.573,42.113
		c14.321,7.563,41.061,7.65,53.648-11.432c6.74-10.216,14.587-9.41,23.703-9.408c60.65,0.012,121.299-0.001,181.949,0.028
		c2.912,0.001,5.405,0.252,6.062-3.814c3.85-23.846,7.959-47.649,11.883-71.483c4.133-25.106,8.155-50.23,12.283-75.699
		c21.392,0,42.522-0.035,63.651,0.102c1.093,0.008,2.425,1.298,3.224,2.32c4.528,5.794,8.35,12.263,13.487,17.433
		c12.828,12.906,29.208,15.102,46.218,12.603c11.664-1.714,21.127-8.222,29.195-16.902c12.394-13.333,14.946-29.365,12.448-46.375
		c-1.713-11.662-8.222-21.125-16.901-29.195c-13.332-12.395-29.437-15.297-46.358-12.391c-17.757,3.049-30.043,14.334-38.275,30.223
		c-0.754,1.454-2.981,3.031-4.54,3.046c-19.992,0.204-39.987,0.074-59.981,0.198c-3.059,0.02-4.007-1.344-4.4-3.979
		c-1.641-10.988-3.229-21.986-5.078-32.94c-3.204-18.982-6.678-37.92-9.871-56.904c-3.189-18.96-6.174-37.955-9.325-57.403
		c-66.009,0-131.72,0-197.802,0c0-8.464,0-16.401,0-24.57C194.184,155.225,164.923,155.225,135.303,155.225z"/>
	<path fill="#FFFFFF" d="M3214.846,158.936v48.88h-109.721v118.041h109.721v48.88h-109.721v118.561h109.721v48.881h-158.602V158.936
		H3214.846z M2784.289,328.457h30.68c13,0,22.36-1.56,27.561-4.68c4.68-3.12,7.8-5.72,9.359-7.28c7.801-9.88,11.44-26,11.44-48.881
		c0-25.48-4.16-40.56-11.96-49.4c-8.32-8.32-20.28-10.4-36.4-10.4h-30.68V328.457z M2913.25,541.659h-49.4V428.298
		c0-33.8-16.12-50.44-48.881-50.44h-30.68v163.802h-48.881V158.416h79.561c66.041,0,97.241,37.96,97.241,109.201
		c0,35.36-7.801,62.401-22.881,80.601c-0.52,0.521-1.56,1.561-2.08,2.601c-1.04,1.04-2.079,2.079-3.119,2.6
		c18.72,18.2,29.12,43.161,29.12,74.881V541.659z M2590.851,542.179h-48.88V158.936h48.88V542.179z M2299.659,403.338
		l54.081-244.402h50.44l-84.761,383.243h-39.521l-53.561-244.922l-54.08,244.922h-39.521l-84.761-383.243h50.44l54.08,244.402
		l54.081-244.402h39.521L2299.659,403.338z M1909.143,158.936v48.88h-109.721v118.041h109.721v48.88h-109.721v118.561h109.721
		v48.881h-158.602V158.936H1909.143z M1521.223,415.818l65-257.403h50.44l-96.201,383.244h-38.479l-95.161-383.244h50.44
		L1521.223,415.818z M1161.903,386.178h43.681l-21.84-94.121L1161.903,386.178z M1217.024,435.058h-66.561l-24.44,107.121h-50.44
		l88.4-383.243h39.001l89.44,383.243h-50.96L1217.024,435.058z M769.831,268.137c0-33.801,7.28-60.321,21.84-79.041
		c10.921-14.04,31.721-30.16,69.161-30.16s57.721,16.12,68.641,30.16c15.08,19.24,22.36,45.24,22.36,79.041v24.44h-49.4v-24.44
		c0-29.641-6.761-45.761-15.081-53.041c-8.84-7.281-19.76-7.281-26.52-7.281c-7.8,0-17.681,0-26.521,7.28
		c-8.84,7.281-15.6,23.401-15.6,53.042v164.321c0,22.36,4.159,39,11.96,48.88c1.56,2.601,4.68,5.2,9.359,7.801
		c4.681,2.6,11.44,4.159,20.801,4.159c18.72,0,26-7.279,30.16-11.96c7.8-10.399,11.44-26.52,11.44-48.88v-24.44h49.4v24.44
		c0,33.8-7.28,59.801-22.36,79.04c-10.92,14.04-31.2,30.681-68.641,30.681c-18.721,0-32.761-4.16-44.2-10.4
		c-11.44-5.72-19.24-13.52-24.961-20.28c-14.56-18.72-21.84-45.24-21.84-79.04V268.137z"/>
</g>
</svg>
